<?xml version="1.0" encoding="UTF-8"?>
<svg viewBox="0 0 716 160" version="1.1" xmlns="http://www.w3.org/2000/svg" xmlns:xlink="http://www.w3.org/1999/xlink">
    <title>horizontal_black</title>
    <g id="Logos" stroke="none" stroke-width="1" fill="none" fill-rule="evenodd">
        <g id="Group" transform="translate(42.000000, 26.999276)" fill-rule="nonzero">
            <g id="Shape">
                <path d="M0,12.7014472 L16.5,10.0014472 L16.5,27.2014472 L36.3,27.2014472 L36.3,40.9014472 L16.5,40.9014472 L16.5,61.4014472 C16.5,64.9014472 17.1,67.7014472 18.3,69.7014472 C19.5,71.8014472 22,72.9014472 25.7,72.9014472 C29.3,72.9014472 32.9,72.2014472 36.3,70.9014472 L38.6,83.9014472 C30.0853723,87.4599358 20.5776106,87.8501797 11.8,85.0014472 C6.21975151,82.7628394 2.17943902,77.8162886 1.1,71.9014472 C0.3,68.6014472 0,65.0014472 0,61.7014472 L0,12.7014472 Z M102.6,27.2014472 C99.4118314,37.8474349 95.8766114,48.3863927 92,58.8014472 C88.5,68.5014472 84.5,78.0014472 80.2,87.4014472 C78.8,90.4014472 77.2,93.1014472 75.5,95.9014472 C74.118532,98.0338366 72.4342321,99.9539385 70.5,101.601447 C68.6107089,103.121283 66.4338251,104.243738 64.1,104.901447 C57.2375474,106.682774 49.9856705,106.227342 43.4,103.601447 L46.4,90.5014472 C49.203264,91.4551022 52.139234,91.9613039 55.1,92.0014472 C58.1,92.0014472 60.3,91.2014472 61.9,89.6014472 C63.6708016,87.6982544 65.0322148,85.4519226 65.9,83.0014472 C56.9258293,65.1027751 49.5957241,46.4260687 44,27.2014472 L61.5,27.2014472 L64.1,36.5014472 C67.0623838,46.3130478 70.364371,56.0188887 74,65.6014472 C76.2539258,59.3848932 78.2555608,53.0797429 80,46.7014472 L85.4,27.2014472 L102.4,27.2014472 L102.6,27.2014472 Z M148.6,56.8014472 C148.840196,52.4401761 147.64605,48.1201786 145.2,44.5014472 C142.9,41.5014472 139.5,39.9014472 135,39.9014472 C132.587981,39.9123692 130.180557,40.1129879 127.8,40.5014472 L127.8,70.3014472 C129,71.1014472 130.4,71.6014472 131.8,72.0014472 C133.5,72.4014472 135.2,72.6014472 136.8,72.6014472 C144.7,72.6014472 148.6,67.3014472 148.6,56.8014472 Z M165.4,56.3014472 C165.431405,60.4621018 164.85877,64.6052882 163.7,68.6014472 C162.7,72.1014472 161.1,75.3014472 158.9,78.2014472 C156.751428,80.8617736 154.012279,82.9846135 150.9,84.4014472 C143.481631,87.4576244 135.136499,87.3492461 127.8,84.1014472 L127.8,106.001447 L111.3,106.001447 L111.3,29.2014472 C114.922894,28.0791369 118.637066,27.2760727 122.4,26.8014472 C126.611777,26.2353327 130.851525,25.9014943 135.1,25.8014472 C139.9,25.8014472 144.1,26.6014472 147.9,28.0014472 C155.156532,30.6504076 160.844286,36.411552 163.4,43.7014472 C164.7,47.5014472 165.4,51.7014472 165.4,56.3014472 L165.4,56.3014472 Z M214.1,50.5014472 C214,49.1014472 213.8,47.7014472 213.4,46.4014472 C213,45.1014472 212.4,43.9014472 211.4,42.8014472 C210.6,41.8014472 209.4,40.8014472 208.3,40.3014472 C206.8,39.5014472 205.1,39.3014472 203.4,39.3014472 C200.349074,39.1254425 197.390681,40.3827594 195.4,42.7014472 C194.430595,43.7063511 193.741082,44.947475 193.4,46.3014472 C192.9,47.6014472 192.5,49.0014472 192.3,50.5014472 L214,50.5014472 L214.1,50.5014472 Z M175.4,56.8014472 C175.4,51.6014472 176.1,47.1014472 177.7,43.2014472 C179.127365,39.5778859 181.269973,36.2789497 184,33.5014472 C189.164478,28.4634692 196.085278,25.6306027 203.3,25.6014472 C211.5,25.6014472 218,28.2014472 222.8,33.2014472 C227.6,38.2014472 230,45.7014472 230,55.6014472 L229.9,58.7014472 L229.7,61.7014472 L192.3,61.7014472 C192.523281,65.0387946 194.252909,68.0932451 197,70.0014472 C199.8,72.0014472 203.6,73.0014472 208.3,73.0014472 C213.765833,72.9256241 219.177963,71.9108497 224.3,70.0014472 L226.6,83.5014472 C222.043306,85.3679987 217.213832,86.4824927 212.3,86.8014472 C210.3,87.0014472 208.2,87.1014472 206.1,87.1014472 C200.9,87.1014472 196.3,86.4014472 192.4,84.8014472 C185.113433,82.1008465 179.472147,76.2014618 177.1,68.8014472 C175.861106,64.9236842 175.253359,60.8720404 175.3,56.8014472 L175.4,56.8014472 Z" fill="#161326"></path>
                <path d="M269.2,83.5014472 L241,61.3014472 L241,55.8014472 L269.2,33.8014472 L271.7,40.4014472 L249.3,58.6014472 L271.7,76.7014472 L269.2,83.5014472 L269.2,83.5014472 Z M326,56.9014472 C326,50.4014472 324.5,45.3014472 321.6,41.5014472 C318.842163,37.7780059 314.43097,35.6471753 309.8,35.8014472 C304.8,35.8014472 300.8,37.8014472 298,41.5014472 C295,45.3014472 293.6,50.5014472 293.6,56.9014472 C293.6,63.4014472 295.1,68.5014472 298,72.3014472 C300.746395,76.0386791 305.16534,78.1732544 309.8,78.0014472 C314.8,78.0014472 318.8,76.0014472 321.6,72.3014472 C324.6,68.5014472 326,63.3014472 326,56.9014472 L326,56.9014472 Z M336.7,56.9014472 C336.7,61.1014472 336,65.3014472 334.7,69.2014472 C333.476724,72.7057946 331.573677,75.9341786 329.1,78.7014472 C326.738932,81.3230826 323.839498,83.4038527 320.6,84.8014472 C313.717446,87.7910895 305.90994,87.8272354 299,84.9014472 C295.749518,83.4774846 292.848762,81.3616386 290.5,78.7014472 C288.028444,75.9326289 286.125659,72.7046888 284.9,69.2014472 C282.288445,61.2093807 282.288445,52.5935136 284.9,44.6014472 C286.118455,41.0948662 288.022034,37.8655797 290.5,35.1014472 C295.394071,29.6233379 302.457309,26.5857796 309.8,26.8014472 C313.7,26.8014472 317.3,27.5014472 320.6,28.9014472 C327.221256,32.0240948 332.304268,37.6839023 334.7,44.6014472 C336,48.6014472 336.7,52.7014472 336.7,56.9014472 L336.7,56.9014472 Z M367.7,0.000702745472 C371.87502,-0.0242827785 376.027344,0.617133068 380,1.90144717 L378.1,10.7014472 C376.9,10.1014472 375.7,9.70144717 374.4,9.40144717 C372.8,9.00144717 370.8,8.80144717 368.4,8.80144717 C363.7,8.80144717 360.4,10.1014472 358.4,12.8014472 C356.376089,15.9156419 355.39546,19.5929988 355.6,23.3014472 L355.6,28.3014472 L377.6,28.3014472 L377.6,36.8014472 L355.6,36.8014472 L355.6,85.6014472 L345.3,85.6014472 L345.3,23.0014472 C345.3,15.6014472 347.1,10.0014472 350.7,6.00144717 C354.3,2.00144717 360,0.000702745472 367.7,0.000702745472 L367.7,0.000702745472 Z M418,61.4014472 L389.8,83.4014472 L387.3,76.9014472 L409.7,58.6014472 L398.5,49.6014472 C394.8,46.4014472 391.1,43.4014472 387.3,40.4014472 L389.8,33.7014472 L418,55.8014472 L418,61.4014472 Z" fill="#5AB783"></path>
                <path d="M465,52.2014472 C462.086965,63.412839 458.78497,74.5195494 455.1,85.5014472 L442.3,85.5014472 C436.954887,72.054393 432.216774,58.3739262 428.1,44.5014472 C426.3,38.9014472 424.6,33.2014472 423,27.5014472 L440.4,27.5014472 C442.523176,36.9525323 444.723249,46.3861782 447,55.8014472 C447.816251,59.0148887 448.683025,62.215285 449.6,65.4014472 C451.586952,58.8115316 453.420778,52.1764138 455.1,45.5014472 L457.5,36.1014472 L459.5,27.5014472 L471.5,27.5014472 L473.5,36.1014472 L475.8,45.5014472 C477.468335,52.1937845 479.235193,58.8611749 481.1,65.5014472 C483.906838,55.8238589 486.375007,46.051242 488.5,36.2014472 L490.5,27.5014472 L507.5,27.5014472 C502.942398,43.3058788 497.940413,58.9787637 492.5,74.5014472 C491.167198,78.2066221 489.733328,81.8746596 488.2,85.5014472 L475.4,85.5014472 L469.9,68.8014472 C468.154937,63.3110938 466.554386,57.7758517 465.1,52.2014472 L465,52.2014472 Z M551,50.7014472 C550.9,49.3014472 550.6,47.9014472 550.2,46.6014472 C549.415552,44.0063701 547.611077,41.841 545.2,40.6014472 C543.686928,39.8317741 541.993666,39.4862105 540.3,39.6014472 C535.706847,39.2720216 531.503902,42.1849534 530.2,46.6014472 C529.714555,47.8920762 529.379021,49.2342123 529.2,50.6014472 L550.9,50.6014472 L551,50.7014472 Z M512.2,56.9014472 C512.2,51.8014472 513,47.3014472 514.6,43.4014472 C516.039155,39.8135279 518.181136,36.5495569 520.9,33.8014472 C526.041795,28.8651403 532.87261,26.0755929 540,26.0014472 C548.3,26.0014472 554.8,28.5014472 559.6,33.5014472 C564.4,38.5014472 566.8,46.0014472 566.8,55.7014472 L566.7,58.9014472 L566.4,61.9014472 L529.1,61.9014472 C529.4,65.1014472 531.1,68.1014472 533.8,69.9014472 C536.6,71.9014472 540.4,72.9014472 545.1,72.9014472 C550.559448,72.851761 555.970407,71.8710248 561.1,70.0014472 L563.3,83.4014472 C558.742236,85.2646318 553.913318,86.3789976 549,86.7014472 C547,86.9014472 545,87.0014472 542.9,87.0014472 C537.6,87.0014472 533.1,86.2014472 529.2,84.7014472 C521.94863,82.0349184 516.337565,76.1654496 514,68.8014472 C512.76493,64.9571617 512.157146,60.9390321 512.2,56.9014472 L512.2,56.9014472 Z M614.2,56.1014472 C614.2,45.5014472 610.2,40.1014472 602.5,40.1014472 C599.315099,40.1382964 596.188825,40.9628084 593.4,42.5014472 L593.4,72.4014472 C595.774699,72.8292614 598.188961,72.9969185 600.6,72.9014472 C605.1,72.9014472 608.5,71.4014472 610.8,68.3014472 C613.225006,64.7104683 614.418187,60.4290536 614.2,56.1014472 Z M631,56.5014472 C631,61.1014472 630.3,65.3014472 629,69.0014472 C626.441621,76.2550409 620.802891,82.0036169 613.6,84.7014472 C609.470516,86.2167254 605.098294,86.9623756 600.7,86.9014472 C596.445932,86.9298692 592.197194,86.5953228 588,85.9014472 C584.285583,85.3841723 580.610494,84.6157448 577,83.6014472 L577,2.60144717 L593.3,0.0014471685 L593.3,28.9014472 C600.625378,25.6330609 608.965856,25.4886371 616.4,28.5014472 C619.6,29.9014472 622.2,31.9014472 624.4,34.5014472 C626.6,37.4014472 628.3,40.6014472 629.2,44.1014472 C630.4,48.1014472 630.9,52.3014472 630.9,56.5014472 L631,56.5014472 Z" fill="#161326"></path>
            </g>
        </g>
    </g>
</svg>
